<svg width="68" height="68" viewBox="0 0 68 68" fill="none" xmlns="http://www.w3.org/2000/svg">
<path d="M38.4879 62.5048C54.4161 59.8408 65.1689 44.7688 62.5048 28.8406C59.8408 12.9123 44.7688 2.15962 28.8406 4.82366C12.9124 7.4877 2.15963 22.5597 4.82368 38.4879C7.48772 54.4161 22.5597 65.1688 38.4879 62.5048Z" fill="url(#paint0_linear_395_977)"/>
<path d="M58.2547 29.5514C55.9832 15.9703 43.1353 6.80186 29.5514 9.07381C15.9703 11.3453 6.80182 24.1932 9.07377 37.7771C11.3453 51.3582 24.1939 60.5266 37.7771 58.2547C51.3582 55.9832 60.5266 43.1353 58.2547 29.5514Z" fill="url(#paint1_linear_395_977)"/>
<path fill-rule="evenodd" clip-rule="evenodd" d="M22.285 38.6256L14.3642 32.9709L23.3493 20.3714L32.8278 27.1379L35.9463 29.3627L33.7223 32.4817L24.2431 25.7153L19.7061 32.0782L24.5096 35.5057L22.285 38.6256ZM39.5899 17.6543L52.186 26.6444L45.4239 36.128L44.3129 37.687L41.1943 35.4615L42.3067 33.9022L46.8443 27.5385L40.4837 22.9983L37.0579 27.8029L33.94 25.5773L39.5899 17.6543ZM38.9705 38.5812L35.5451 43.3843L30.7439 39.9571L28.5199 43.0762L36.4391 48.7297L42.0877 40.8069L38.9705 38.5812ZM25.4022 40.8513L27.6145 37.7233L26.0674 36.6183L23.8435 39.7381L25.4022 40.8513Z" fill="#3F3A40"/>
<path d="M24.5092 35.5065L22.2852 38.6255L23.8437 39.738L26.0676 36.6183L24.5092 35.5065ZM32.8279 27.1372L35.9466 29.3633L37.0582 27.8035L33.9403 25.5779L32.8279 27.1372Z" fill="#3F3A40"/>
<defs>
<linearGradient id="paint0_linear_395_977" x1="4.0037" y1="20.5243" x2="60.7487" y2="55.6607" gradientUnits="userSpaceOnUse">
<stop stop-color="#FFA216"/>
<stop offset="1" stop-color="#FFC352"/>
</linearGradient>
<linearGradient id="paint1_linear_395_977" x1="14.4509" y1="19.9564" x2="49.8063" y2="58.616" gradientUnits="userSpaceOnUse">
<stop offset="0.359" stop-color="#FFC353"/>
<stop offset="1" stop-color="#FFA600"/>
</linearGradient>
</defs>
</svg>
