<svg width="35" height="35" viewBox="0 0 35 35" fill="none" xmlns="http://www.w3.org/2000/svg">
<path d="M34.5205 17.2603C34.5205 7.72721 26.7944 -2.63456e-07 17.2603 -1.69711e-07C7.72721 -7.59777e-08 7.59671e-08 7.72613 1.69711e-07 17.2603C2.63445e-07 26.7933 7.72613 34.5205 17.2603 34.5205C26.7933 34.5205 34.5205 26.7944 34.5205 17.2603Z" fill="url(#paint0_linear_395_978)"/>
<path d="M17.229 6.90417L26.2044 12.0585L22.6876 14.1082L17.2506 10.9862L11.8309 14.1362L11.8481 20.4103L17.2851 23.5323L22.7049 20.3812L26.2324 22.4147L17.2851 27.6165L8.30979 22.4632L8.28174 12.1071L17.229 6.90417Z" fill="white"/>
<defs>
<linearGradient id="paint0_linear_395_978" x1="5.70668" y1="5.70668" x2="25.433" y2="36.1409" gradientUnits="userSpaceOnUse">
<stop offset="0.359" stop-color="#CDA9FF"/>
<stop offset="1" stop-color="#A871F4"/>
</linearGradient>
</defs>
</svg>
