<svg width="25" height="30" viewBox="0 0 25 30" fill="none" xmlns="http://www.w3.org/2000/svg">
<g clip-path="url(#clip0_414_1073)">
<path d="M24.4032 7.9319C24.3685 7.16371 24.3685 6.43042 24.3685 5.69714C24.3685 5.10353 23.9172 4.6496 23.327 4.6496C18.9873 4.6496 15.6892 3.39254 12.9465 0.703846C12.5299 0.319747 11.9051 0.319747 11.4885 0.703846C8.74581 3.39254 5.44765 4.6496 1.108 4.6496C0.517806 4.6496 0.0664819 5.10353 0.0664819 5.69714C0.0664819 6.43042 0.0664819 7.16371 0.0317647 7.9319C-0.107104 15.2647 -0.315408 25.3211 11.8703 29.5462L12.2175 29.6161L12.5647 29.5462C24.7157 25.3211 24.5421 15.2996 24.4032 7.9319ZM11.3843 18.0931C11.176 18.2677 10.933 18.3725 10.6552 18.3725H10.6205C10.3427 18.3725 10.065 18.2328 9.89145 18.0232L6.66275 14.4266L8.225 13.0299L10.7594 15.8583L16.3835 10.4809L17.8069 12.0173L11.3843 18.0931Z" fill="url(#paint0_linear_414_1073)"/>
</g>
<defs>
<linearGradient id="paint0_linear_414_1073" x1="-2.12923" y1="10.2005" x2="25.1237" y2="11.2227" gradientUnits="userSpaceOnUse">
<stop stop-color="#D1ADF4"/>
<stop offset="1" stop-color="#98A5F2"/>
</linearGradient>
<clipPath id="clip0_414_1073">
<rect width="25" height="30" fill="white"/>
</clipPath>
</defs>
</svg>
