<svg width="29" height="19" viewBox="0 0 29 19" fill="none" xmlns="http://www.w3.org/2000/svg">
<g clip-path="url(#clip0_414_1093)">
<path d="M28.1504 18.6736H0.849611C0.380002 18.6736 0 18.3 0 17.8383V1.13276C0 0.671078 0.380002 0.297485 0.849611 0.297485H28.1504C28.62 0.297485 29 0.671078 29 1.13276V17.8383C29 18.3 28.62 18.6736 28.1504 18.6736Z" fill="url(#paint0_linear_414_1093)"/>
<path d="M21.2967 15.3325H7.70288C7.23327 15.3325 6.85327 14.959 6.85327 14.4973C6.85327 13.1155 5.70992 11.9915 4.30445 11.9915C3.83483 11.9915 3.45483 11.6179 3.45483 11.1562V7.81507C3.45483 7.35338 3.83483 6.97979 4.30445 6.97979C5.70992 6.97979 6.85327 5.85573 6.85327 4.47395C6.85327 4.01227 7.23327 3.63867 7.70288 3.63867H21.2967C21.7662 3.63867 22.1462 4.01227 22.1462 4.47395C22.1462 5.85573 23.2896 6.97979 24.6951 6.97979C25.1647 6.97979 25.5447 7.35338 25.5447 7.81507V11.1562C25.5447 11.6179 25.1647 11.9915 24.6951 11.9915C23.2896 11.9915 22.1462 13.1155 22.1462 14.4973C22.1462 14.959 21.7662 15.3325 21.2967 15.3325Z" fill="url(#paint1_linear_414_1093)"/>
<path d="M14.5 11.9913C15.9077 11.9913 17.0489 10.8694 17.0489 9.48547C17.0489 8.10148 15.9077 6.97961 14.5 6.97961C13.0923 6.97961 11.9512 8.10148 11.9512 9.48547C11.9512 10.8694 13.0923 11.9913 14.5 11.9913Z" fill="url(#paint2_linear_414_1093)"/>
</g>
<defs>
<linearGradient id="paint0_linear_414_1093" x1="-2.52714" y1="6.45519" x2="29.703" y2="8.73502" gradientUnits="userSpaceOnUse">
<stop stop-color="#D1ADF4"/>
<stop offset="1" stop-color="#98A5F2"/>
</linearGradient>
<linearGradient id="paint1_linear_414_1093" x1="14.4998" y1="15.3326" x2="14.4998" y2="3.63867" gradientUnits="userSpaceOnUse">
<stop stop-color="#EAE2FF"/>
<stop offset="1" stop-color="#F1F2FF"/>
</linearGradient>
<linearGradient id="paint2_linear_414_1093" x1="11.507" y1="8.65897" x2="17.189" y2="8.91805" gradientUnits="userSpaceOnUse">
<stop stop-color="#D1ADF4"/>
<stop offset="1" stop-color="#98A5F2"/>
</linearGradient>
<clipPath id="clip0_414_1093">
<rect width="29" height="19" fill="white"/>
</clipPath>
</defs>
</svg>
