<svg width="17" height="17" viewBox="0 0 17 17" fill="none" xmlns="http://www.w3.org/2000/svg">
<circle cx="8.5" cy="8.5" r="8.5" fill="white" fill-opacity="0.15"/>
<path d="M8.5 14C5.49333 14 3 11.5067 3 8.5C3 5.49333 5.49333 3 8.5 3C11.5067 3 14 5.49333 14 8.5C14 11.5067 11.5067 14 8.5 14ZM13.0467 8.5C13.0467 5.93333 10.9933 3.95333 8.42667 3.95333C5.93333 3.95333 3.95333 6.00667 3.95333 8.5C3.95333 11.0667 6.00667 13.12 8.57333 13.12C11.0667 13.0467 13.12 10.9933 13.0467 8.5Z" fill="white"/>
<path d="M8.93991 8.06004C9.74657 8.06004 10.4799 8.06004 11.2132 8.06004C11.2132 8.35337 11.2132 8.64671 11.2132 8.94004C10.1866 8.94004 9.08657 8.94004 7.98657 8.94004C7.98657 7.54671 7.98657 6.22671 7.98657 4.83337C8.27991 4.83337 8.57324 4.83337 8.86657 4.83337C8.93991 5.93337 8.93991 6.96004 8.93991 8.06004Z" fill="white"/>
</svg>
