<svg width="22" height="21" viewBox="0 0 22 21" fill="none" xmlns="http://www.w3.org/2000/svg">
    <path d="M1.27012 10.7613C1.16851 10.6597 1.09852 10.531 1.06901 10.3915C1.03949 10.2521 1.05177 10.108 1.1043 9.9777C1.15682 9.84736 1.24723 9.73657 1.36409 9.65933C1.48096 9.58209 1.61901 9.54187 1.76081 9.54377L20.4949 9.79169C20.6851 9.7942 20.8684 9.87218 21.0046 10.0085C21.1409 10.1447 21.2188 10.3282 21.2213 10.5184C21.2239 10.7086 21.1507 10.89 21.0181 11.0227C20.8854 11.1555 20.704 11.2286 20.5139 11.2261L1.77978 10.9782C1.68562 10.977 1.59213 10.9573 1.50466 10.9201C1.4172 10.8828 1.3375 10.8289 1.27012 10.7613Z" fill="url(#paint0_linear_1_1539)"/>
    <path d="M10.7611 20.2559C10.6935 20.1885 10.6396 20.1088 10.6024 20.0213C10.5652 19.9338 10.5455 19.8402 10.5443 19.746L10.2965 1.00478C10.294 0.814571 10.3671 0.633148 10.4998 0.500427C10.6324 0.367705 10.8138 0.294557 11.0039 0.297073C11.1941 0.299589 11.3774 0.377564 11.5137 0.513844C11.6499 0.650124 11.7278 0.833546 11.7304 1.02376L11.9782 19.765C11.9801 19.9069 11.9399 20.045 11.8627 20.1619C11.7854 20.2788 11.6747 20.3692 11.5444 20.4218C11.4141 20.4743 11.2702 20.4866 11.1307 20.4571C10.9913 20.4275 10.8627 20.3575 10.7611 20.2559Z" fill="url(#paint1_linear_1_1539)"/>
    <defs>
        <linearGradient id="paint0_linear_1_1539" x1="6.65087" y1="2.5169" x2="17.8395" y2="14.7804" gradientUnits="userSpaceOnUse">
            <stop stop-color="#D1ADF4"/>
            <stop offset="1" stop-color="#7B8AE4"/>
            <stop offset="1" stop-color="#98A5F2"/>
        </linearGradient>
        <linearGradient id="paint1_linear_1_1539" x1="6.65088" y1="2.5169" x2="17.8395" y2="14.7804" gradientUnits="userSpaceOnUse">
            <stop stop-color="#D1ADF4"/>
            <stop offset="1" stop-color="#7B8AE4"/>
            <stop offset="1" stop-color="#98A5F2"/>
        </linearGradient>
    </defs>
</svg>
