<svg width="20" height="20" viewBox="0 0 20 20" fill="none" xmlns="http://www.w3.org/2000/svg">
    <path d="M1 4C0.723858 4 0.5 4.22386 0.5 4.5C0.5 4.77614 0.723858 5 1 5L1 4ZM19.3536 4.85355C19.5488 4.65829 19.5488 4.34171 19.3536 4.14645L16.1716 0.964465C15.9763 0.769203 15.6597 0.769203 15.4645 0.964465C15.2692 1.15973 15.2692 1.47631 15.4645 1.67157L18.2929 4.5L15.4645 7.32843C15.2692 7.52369 15.2692 7.84027 15.4645 8.03553C15.6597 8.23079 15.9763 8.23079 16.1716 8.03553L19.3536 4.85355ZM1 5L19 5L19 4L1 4L1 5Z" fill="#333333"/>
    <path d="M19 15C19.2761 15 19.5 15.2239 19.5 15.5C19.5 15.7761 19.2761 16 19 16L19 15ZM0.646446 15.8536C0.451183 15.6583 0.451183 15.3417 0.646446 15.1464L3.82843 11.9645C4.02369 11.7692 4.34027 11.7692 4.53553 11.9645C4.7308 12.1597 4.7308 12.4763 4.53553 12.6716L1.70711 15.5L4.53553 18.3284C4.73079 18.5237 4.73079 18.8403 4.53553 19.0355C4.34027 19.2308 4.02369 19.2308 3.82843 19.0355L0.646446 15.8536ZM19 16L1 16L1 15L19 15L19 16Z" fill="#333333"/>
</svg>
