<svg width="107" height="80" viewBox="0 0 107 80" fill="none" xmlns="http://www.w3.org/2000/svg">
<path fill-rule="evenodd" clip-rule="evenodd" d="M105.814 27.651C106.932 30.2267 105.75 33.2207 103.174 34.3384L7.10838 76.0253C4.53272 77.143 1.53866 75.9611 0.420974 73.3855C-0.696716 70.8098 0.485205 67.8157 3.06087 66.698L99.1265 25.0111C101.702 23.8934 104.696 25.0753 105.814 27.651Z" fill="#F7F8FA"/>
<path d="M42.7574 8.44036C45.5895 5.62547 48.3526 2.73718 51.2539 0C54.2889 2.79762 57.2679 5.66001 60.3116 8.44468C57.2549 11.2121 54.2933 14.0831 51.2625 16.8807C48.3483 14.1522 45.5982 11.2509 42.7574 8.44036Z" fill="#F7F8FA"/>
<path fill-rule="evenodd" clip-rule="evenodd" d="M49.0177 19.6826C43.9665 19.9891 38.9023 20.5115 33.9978 21.8024C23.2649 24.3626 13.3351 29.8024 5.08472 37.09C5.89662 39.0613 6.72388 41.0282 7.55143 42.9959C11.0011 51.198 14.4557 59.4119 16.8235 68.002C18.7071 68.1051 20.5944 68.0923 22.4818 68.0796C23.441 68.0731 24.4002 68.0667 25.3588 68.0754C23.739 63.9993 22.0517 59.9481 20.3643 55.8967C18.0715 50.3916 15.7785 44.8862 13.6546 39.3177C14.7426 38.627 15.8046 37.893 16.8537 37.1505C19.2409 42.6445 21.5505 48.1719 23.8602 53.6994C25.4437 57.489 27.0272 61.2787 28.6357 65.0576C29.2962 66.6809 30.8375 68.1099 32.6767 68.0625C38.1252 68.097 43.5736 68.0884 49.0221 68.0581C49.0221 63.2207 49.0232 58.3833 49.0244 53.5459C49.0271 42.2581 49.0298 30.9704 49.0177 19.6826ZM41.1041 28.6971C35.3232 29.7894 29.633 31.43 24.2493 33.8002C25.9195 37.8162 27.5443 41.8532 29.169 45.8902C31.0847 50.6501 33.0005 55.41 34.9908 60.1358C35.89 62.0999 38.0132 61.9702 39.9091 61.8544C40.3344 61.8284 40.7483 61.8031 41.1343 61.8023C41.096 55.2715 41.1015 48.7407 41.107 42.2098C41.1109 37.7056 41.1147 33.2014 41.1041 28.6971Z" fill="#F7F8FA"/>
<path fill-rule="evenodd" clip-rule="evenodd" d="M74.2481 23.4948C67.5735 21.1246 60.519 20.0625 53.4689 19.674C53.4689 24.7686 53.4714 29.8632 53.474 34.9577C53.4796 45.997 53.4852 57.0362 53.4645 68.0754C55.4474 68.0723 57.4304 68.076 59.4133 68.0797C62.8831 68.0862 66.353 68.0927 69.8229 68.0625C71.7786 68.1143 73.3285 66.5298 73.9848 64.8072C75.5249 61.1095 77.0811 57.418 78.6373 53.7264C80.9549 48.2287 83.2727 42.7306 85.5379 37.2109C86.6734 37.8628 87.7699 38.5795 88.8493 39.3221C88.4278 40.7029 87.8656 42.0378 87.3043 43.3706C87.1987 43.6214 87.0931 43.8721 86.9885 44.123C85.4697 47.8201 83.9462 51.5144 82.4229 55.2086C80.6553 59.495 78.8878 63.7812 77.1278 68.0711C79.5757 68.0841 82.0193 68.0841 84.4672 68.0711C85.1458 66.5246 85.8284 64.9793 86.5111 63.4339C90.3587 54.7242 94.209 46.008 97.3587 37.021C90.5589 31.1667 82.7921 26.3313 74.2481 23.4948ZM77.948 33.701C72.6723 31.3308 67.0511 29.7679 61.3695 28.7102C61.3997 39.7539 61.417 50.8019 61.3738 61.8499C61.8081 61.8461 62.2439 61.8567 62.68 61.8673C63.7136 61.8924 64.7487 61.9176 65.7689 61.7506C67.2369 61.1784 67.8024 59.684 68.3238 58.3061C68.4004 58.1037 68.4761 57.9037 68.5535 57.7096C69.3031 55.8538 70.0517 53.9977 70.8003 52.1418C72.9149 46.8993 75.0292 41.6575 77.1623 36.4252C77.2455 36.1243 77.3861 35.8194 77.5277 35.5124C77.8046 34.9121 78.0851 34.3037 77.948 33.701Z" fill="#F7F8FA"/>
<path d="M18.4556 71.9049C40.4739 71.9049 62.4923 71.9006 84.5106 71.9049C84.5106 74.4953 84.5106 77.09 84.5106 79.6804C62.4923 79.6804 40.4739 79.6804 18.4556 79.6804C18.4556 77.09 18.4556 74.4953 18.4556 71.9049Z" fill="#F7F8FA"/>
</svg>
