<svg width="22" height="18" viewBox="0 0 22 18" fill="none" xmlns="http://www.w3.org/2000/svg">
<path d="M0.328258 8.37279C2.55169 7.14805 5.03365 6.12588 7.35267 5.09848C11.3423 3.41568 15.3478 1.76204 19.3937 0.222523C20.1808 -0.0397958 21.5952 -0.296329 21.7339 0.870236C21.658 2.5215 21.3456 4.16309 21.1313 5.80468C20.5874 9.41469 19.9588 13.0123 19.3458 16.6105C19.1346 17.809 17.6332 18.4294 16.6725 17.6624C14.3638 16.1029 12.0373 14.5587 9.75808 12.963C9.01146 12.2044 9.70379 11.1149 10.3706 10.5732C12.2721 8.69922 14.2887 7.10708 16.0909 5.13628C16.577 3.96235 15.1407 4.95171 14.6669 5.25484C12.0637 7.04875 9.52421 8.95219 6.77962 10.5288C5.37768 11.3005 3.74369 10.641 2.34239 10.2104C1.08594 9.69017 -0.755221 9.16608 0.328131 8.37287L0.328258 8.37279Z" fill="white"/>
</svg>
