<svg width="24" height="24" viewBox="0 0 24 24" fill="none" xmlns="http://www.w3.org/2000/svg">
<path fill-rule="evenodd" clip-rule="evenodd" d="M11.9926 23.7938H11.9876C9.99725 23.7931 8.0415 23.2937 6.30446 22.3462L0 24L1.68718 17.8374C0.646444 16.0338 0.0988157 13.9879 0.0997082 11.8919C0.102317 5.33474 5.43735 0 11.9924 0C15.1739 0.00137307 18.1598 1.23989 20.4052 3.48784C22.6505 5.73568 23.8864 8.72361 23.8851 11.9013C23.8825 18.4569 18.5496 23.7911 11.9926 23.7938ZM6.59655 20.1932L6.9575 20.4074C8.47515 21.308 10.2148 21.7846 11.9886 21.7853H11.9926C17.4407 21.7853 21.8749 17.3509 21.8771 11.9005C21.8781 9.25931 20.851 6.77587 18.9847 4.90746C17.1185 3.03905 14.6366 2.00958 11.9965 2.00867C6.5441 2.00867 2.10981 6.44256 2.10765 11.8925C2.10688 13.7603 2.62947 15.5792 3.61895 17.153L3.85397 17.527L2.8554 21.1746L6.59655 20.1932ZM17.577 14.4617C17.7843 14.5618 17.9242 14.6295 17.984 14.7292C18.0583 14.8531 18.0583 15.4481 17.8108 16.1423C17.563 16.8364 16.3759 17.4699 15.8049 17.5552C15.293 17.6318 14.6451 17.6637 13.9333 17.4375C13.5017 17.3005 12.9482 17.1177 12.2393 16.8115C9.45348 15.6086 7.57087 12.9086 7.21505 12.3983C7.19013 12.3626 7.1727 12.3376 7.16297 12.3246L7.16057 12.3214C7.00331 12.1115 5.94961 10.7056 5.94961 9.25059C5.94961 7.88181 6.62197 7.16436 6.93146 6.83412C6.95267 6.8115 6.97217 6.79069 6.98963 6.77161C7.262 6.47411 7.58396 6.39974 7.78204 6.39974C7.98012 6.39974 8.17844 6.40157 8.35157 6.41027C8.37294 6.41134 8.39516 6.41121 8.41813 6.41107C8.5913 6.41006 8.80719 6.40879 9.02016 6.92036C9.10209 7.11723 9.22197 7.40908 9.34841 7.7169C9.60411 8.33942 9.88664 9.02725 9.93634 9.12678C10.0107 9.27553 10.0602 9.449 9.96112 9.64741C9.94625 9.67716 9.9325 9.70523 9.91936 9.73206C9.84496 9.88394 9.79024 9.99566 9.66397 10.1431C9.61432 10.2011 9.563 10.2636 9.51169 10.3261C9.40946 10.4506 9.30724 10.575 9.21822 10.6637C9.06946 10.8119 8.9146 10.9727 9.08794 11.2702C9.26128 11.5677 9.85766 12.5407 10.741 13.3287C11.6907 14.1757 12.516 14.5337 12.9343 14.7151C13.016 14.7506 13.0822 14.7793 13.1307 14.8036C13.4278 14.9524 13.6011 14.9275 13.7745 14.7292C13.9478 14.5309 14.5173 13.8615 14.7154 13.5641C14.9134 13.2667 15.1116 13.3162 15.384 13.4153C15.6564 13.5146 17.1173 14.2334 17.4145 14.3821C17.4725 14.4112 17.5267 14.4374 17.577 14.4617Z" fill="#FDFDFD"/>
</svg>
