<svg width="144" height="18" viewBox="0 0 144 18" fill="none" xmlns="http://www.w3.org/2000/svg">
<path d="M47.3653 0L55.3556 10.1816V0H60.1926V17.7989H55.8099L47.6859 7.76816V17.7989H42.849V0H47.3653Z" fill="white"/>
<path d="M71.2617 13.9525C71.7249 13.9525 72.0812 13.8771 72.3306 13.7263C72.5978 13.5754 72.7938 13.3827 72.9185 13.148C73.0432 12.9134 73.1145 12.6536 73.1323 12.3687C73.1679 12.0838 73.1858 11.8156 73.1858 11.5642V4.55028H77.8891V11.9162C77.8891 12.9888 77.7288 13.9106 77.4081 14.6816C77.1052 15.4525 76.6688 16.0894 76.0986 16.5922C75.5285 17.0782 74.8337 17.4385 74.0142 17.6732C73.1947 17.8911 72.2593 18 71.2082 18C70.1749 18 69.2485 17.8911 68.429 17.6732C67.6094 17.4385 66.9146 17.0782 66.3445 16.5922C65.7922 16.0894 65.3468 15.4525 65.0083 14.6816C64.6876 13.9106 64.5273 12.9888 64.5273 11.9162V4.55028H69.2574V11.5642C69.2574 11.8827 69.293 12.1927 69.3643 12.4944C69.4355 12.7793 69.5424 13.0307 69.685 13.2486C69.8453 13.4665 70.0502 13.6425 70.2996 13.7765C70.5668 13.8939 70.8875 13.9525 71.2617 13.9525Z" fill="white"/>
<path d="M86.3023 5.9581C86.6052 5.57263 86.9348 5.27095 87.2911 5.05307C87.6474 4.83519 87.9948 4.6676 88.3333 4.55028C88.6896 4.43296 89.0192 4.36592 89.3221 4.34916C89.6428 4.31564 89.9367 4.29888 90.2039 4.29888C90.8453 4.29888 91.4867 4.42458 92.1281 4.67598C92.7872 4.91061 93.3395 5.37989 93.7849 6.0838C94.0878 5.71508 94.4085 5.41341 94.747 5.17877C95.0855 4.94413 95.4418 4.75978 95.8159 4.6257C96.1901 4.49162 96.5553 4.40782 96.9116 4.3743C97.2857 4.32402 97.6509 4.29888 98.0073 4.29888C98.809 4.29888 99.5038 4.42458 100.092 4.67598C100.697 4.92737 101.187 5.28771 101.562 5.75698C101.936 6.2095 102.212 6.76257 102.39 7.4162C102.568 8.05307 102.657 8.77374 102.657 9.57821V17.7989H97.9271V10.4078C97.9271 10.2067 97.9093 9.98883 97.8736 9.75419C97.8558 9.51955 97.7935 9.30168 97.6866 9.10056C97.5975 8.88268 97.4461 8.7067 97.2323 8.57263C97.0185 8.42179 96.7245 8.34637 96.3504 8.34637C95.9406 8.37989 95.611 8.48045 95.3616 8.64804C95.13 8.81564 94.9519 9.01676 94.8271 9.2514C94.7203 9.48603 94.649 9.72905 94.6134 9.98045C94.5955 10.2318 94.5866 10.4581 94.5866 10.6592V17.7989H89.8565V10.3827C89.8565 10.2151 89.8387 10.014 89.8031 9.77933C89.7853 9.54469 89.7229 9.31844 89.616 9.10056C89.5091 8.88268 89.3488 8.7067 89.135 8.57263C88.939 8.42179 88.6629 8.34637 88.3066 8.34637C87.8612 8.34637 87.5049 8.43017 87.2376 8.59776C86.9882 8.76536 86.8011 8.98324 86.6764 9.2514C86.5695 9.50279 86.4983 9.77095 86.4626 10.0559C86.4448 10.324 86.4359 10.567 86.4359 10.7849V17.7989H81.7058V4.55028H85.8747L86.3023 5.9581Z" fill="white"/>
<path d="M110.996 5.9581C111.298 5.57263 111.628 5.27095 111.984 5.05307C112.341 4.83519 112.688 4.6676 113.027 4.55028C113.383 4.43296 113.713 4.36592 114.015 4.34916C114.336 4.31564 114.63 4.29888 114.897 4.29888C115.539 4.29888 116.18 4.42458 116.821 4.67598C117.481 4.91061 118.033 5.37989 118.478 6.0838C118.781 5.71508 119.102 5.41341 119.44 5.17877C119.779 4.94413 120.135 4.75978 120.509 4.6257C120.883 4.49162 121.249 4.40782 121.605 4.3743C121.979 4.32402 122.344 4.29888 122.701 4.29888C123.502 4.29888 124.197 4.42458 124.785 4.67598C125.391 4.92737 125.881 5.28771 126.255 5.75698C126.629 6.2095 126.905 6.76257 127.083 7.4162C127.261 8.05307 127.351 8.77374 127.351 9.57821V17.7989H122.62V10.4078C122.62 10.2067 122.603 9.98883 122.567 9.75419C122.549 9.51955 122.487 9.30168 122.38 9.10056C122.291 8.88268 122.139 8.7067 121.926 8.57263C121.712 8.42179 121.418 8.34637 121.044 8.34637C120.634 8.37989 120.304 8.48045 120.055 8.64804C119.823 8.81564 119.645 9.01676 119.52 9.2514C119.414 9.48603 119.342 9.72905 119.307 9.98045C119.289 10.2318 119.28 10.4581 119.28 10.6592V17.7989H114.55V10.3827C114.55 10.2151 114.532 10.014 114.496 9.77933C114.479 9.54469 114.416 9.31844 114.309 9.10056C114.202 8.88268 114.042 8.7067 113.828 8.57263C113.632 8.42179 113.356 8.34637 113 8.34637C112.554 8.34637 112.198 8.43017 111.931 8.59776C111.682 8.76536 111.494 8.98324 111.37 9.2514C111.263 9.50279 111.192 9.77095 111.156 10.0559C111.138 10.324 111.129 10.567 111.129 10.7849V17.7989H106.399V4.55028H110.568L110.996 5.9581Z" fill="white"/>
<path d="M139.644 16.0642C139.288 16.567 138.896 16.9525 138.468 17.2207C138.058 17.4721 137.64 17.6564 137.212 17.7737C136.802 17.8911 136.419 17.9581 136.063 17.9749C135.707 17.9916 135.439 18 135.261 18C134.673 18 134.094 17.9162 133.524 17.7486C132.972 17.581 132.482 17.3212 132.054 16.9693C131.627 16.6173 131.28 16.1816 131.012 15.662C130.745 15.1257 130.611 14.4804 130.611 13.7263C130.611 12.9553 130.816 12.2849 131.226 11.7151C131.654 11.1453 132.161 10.7179 132.749 10.433C133.177 10.2318 133.631 10.081 134.112 9.98045C134.611 9.86313 135.11 9.78771 135.609 9.75419C136.125 9.72067 136.66 9.70391 137.212 9.70391H139.51C139.493 9.23464 139.306 8.84078 138.949 8.52235C138.611 8.18715 138.13 8.01955 137.506 8.01955C137.043 8.01955 136.615 8.11173 136.223 8.29609C135.849 8.48045 135.635 8.71508 135.582 9H130.879C130.986 8.17877 131.244 7.47486 131.654 6.88827C132.063 6.28492 132.571 5.79888 133.177 5.43017C133.783 5.04469 134.451 4.75978 135.181 4.57542C135.912 4.39106 136.669 4.29888 137.453 4.29888C138.397 4.29888 139.216 4.39106 139.911 4.57542C140.624 4.75978 141.239 5.03631 141.755 5.40503C143.252 6.42737 144 8.18715 144 10.6844V17.7989H139.644V16.0642ZM136.918 12.4441C136.473 12.4441 136.09 12.5279 135.769 12.6955C135.448 12.8631 135.288 13.1397 135.288 13.5251C135.288 13.8771 135.431 14.1453 135.716 14.3296C136.019 14.514 136.384 14.6061 136.811 14.6061C137.185 14.6061 137.533 14.5475 137.854 14.4302C138.192 14.3128 138.477 14.1536 138.709 13.9525C138.958 13.7346 139.154 13.5 139.297 13.2486C139.457 12.9972 139.546 12.729 139.564 12.4441H136.918Z" fill="white"/>
<path d="M15.3969 9.50715C15.3969 13.5069 11.9502 16.7493 7.69846 16.7493C3.44672 16.7493 0 13.5069 0 9.50715C0 5.50743 3.44672 2.26501 7.69846 2.26501C11.9502 2.26501 15.3969 5.50743 15.3969 9.50715Z" fill="white"/>
<path d="M24.058 16.244C26.1269 14.6463 27.4467 12.2217 27.4467 9.50715C27.4467 6.79259 26.1269 4.36802 24.058 2.77034C24.9342 2.44422 25.8893 2.26501 26.8888 2.26501C31.1406 2.26501 34.5873 5.50743 34.5873 9.50715C34.5873 13.5069 31.1406 16.7493 26.8888 16.7493C25.8893 16.7493 24.9342 16.5701 24.058 16.244Z" fill="white"/>
<path d="M13.7943 15.4559C15.3421 13.8989 16.2895 11.8071 16.2895 9.50715C16.2895 7.20721 15.3421 5.11543 13.7943 3.55838C15.0399 2.74302 16.5537 2.26501 18.1862 2.26501C22.438 2.26501 25.8847 5.50743 25.8847 9.50715C25.8847 13.5069 22.438 16.7493 18.1862 16.7493C16.5537 16.7493 15.0399 16.2713 13.7943 15.4559Z" fill="white"/>
</svg>
