<svg width="186" height="24" viewBox="0 0 186 24" fill="none" xmlns="http://www.w3.org/2000/svg">
<path d="M61.1801 0L71.501 13.5754V0H77.7488V23.7318H72.0879L61.5943 10.3575V23.7318H55.3466V0H61.1801Z" fill="#333333"/>
<path d="M92.0463 18.6034C92.6446 18.6034 93.1049 18.5028 93.427 18.3017C93.7722 18.1006 94.0254 17.8436 94.1864 17.5307C94.3475 17.2179 94.4396 16.8715 94.4626 16.4916C94.5086 16.1117 94.5316 15.7542 94.5316 15.419V6.06704H100.607V15.8883C100.607 17.3184 100.4 18.5475 99.9855 19.5754C99.5943 20.6034 99.0305 21.4525 98.2941 22.1229C97.5577 22.7709 96.6602 23.2514 95.6017 23.5642C94.5431 23.8547 93.335 24 91.9773 24C90.6426 24 89.446 23.8547 88.3874 23.5642C87.3288 23.2514 86.4314 22.7709 85.695 22.1229C84.9816 21.4525 84.4063 20.6034 83.9691 19.5754C83.5549 18.5475 83.3478 17.3184 83.3478 15.8883V6.06704H89.4575V15.419C89.4575 15.8436 89.5035 16.257 89.5955 16.6592C89.6876 17.0391 89.8257 17.3743 90.0098 17.6648C90.2169 17.9553 90.4815 18.1899 90.8037 18.3687C91.1488 18.5251 91.5631 18.6034 92.0463 18.6034Z" fill="#333333"/>
<path d="M111.474 7.94413C111.865 7.43017 112.291 7.02793 112.751 6.73743C113.211 6.44693 113.66 6.22346 114.097 6.06704C114.557 5.91061 114.983 5.82123 115.374 5.79888C115.789 5.75419 116.168 5.73184 116.513 5.73184C117.342 5.73184 118.17 5.89944 118.999 6.23464C119.85 6.54749 120.564 7.17318 121.139 8.11173C121.53 7.62011 121.944 7.21788 122.382 6.90503C122.819 6.59218 123.279 6.34637 123.762 6.1676C124.245 5.98883 124.717 5.87709 125.177 5.8324C125.661 5.76536 126.132 5.73184 126.593 5.73184C127.628 5.73184 128.526 5.89944 129.285 6.23464C130.068 6.56983 130.7 7.05028 131.184 7.67598C131.667 8.27933 132.024 9.01676 132.254 9.88827C132.484 10.7374 132.599 11.6983 132.599 12.7709V23.7318H126.489V13.8771C126.489 13.6089 126.466 13.3184 126.42 13.0056C126.397 12.6927 126.317 12.4022 126.179 12.1341C126.063 11.8436 125.868 11.6089 125.592 11.4302C125.316 11.229 124.936 11.1285 124.453 11.1285C123.923 11.1732 123.498 11.3073 123.175 11.5307C122.876 11.7542 122.646 12.0223 122.485 12.3352C122.347 12.648 122.255 12.9721 122.209 13.3073C122.186 13.6425 122.174 13.9441 122.174 14.2123V23.7318H116.065V13.8436C116.065 13.6201 116.042 13.352 115.996 13.0391C115.973 12.7263 115.892 12.4246 115.754 12.1341C115.616 11.8436 115.409 11.6089 115.133 11.4302C114.88 11.229 114.523 11.1285 114.063 11.1285C113.487 11.1285 113.027 11.2402 112.682 11.4637C112.36 11.6872 112.118 11.9777 111.957 12.3352C111.819 12.6704 111.727 13.0279 111.681 13.4078C111.658 13.7654 111.646 14.0894 111.646 14.3799V23.7318H105.537V6.06704H110.922L111.474 7.94413Z" fill="#333333"/>
<path d="M143.369 7.94413C143.761 7.43017 144.186 7.02793 144.646 6.73743C145.107 6.44693 145.555 6.22346 145.993 6.06704C146.453 5.91061 146.879 5.82123 147.27 5.79888C147.684 5.75419 148.064 5.73184 148.409 5.73184C149.237 5.73184 150.066 5.89944 150.894 6.23464C151.746 6.54749 152.459 7.17318 153.034 8.11173C153.426 7.62011 153.84 7.21788 154.277 6.90503C154.714 6.59218 155.175 6.34637 155.658 6.1676C156.141 5.98883 156.613 5.87709 157.073 5.8324C157.556 5.76536 158.028 5.73184 158.488 5.73184C159.524 5.73184 160.421 5.89944 161.181 6.23464C161.963 6.56983 162.596 7.05028 163.079 7.67598C163.562 8.27933 163.919 9.01676 164.149 9.88827C164.379 10.7374 164.494 11.6983 164.494 12.7709V23.7318H158.385V13.8771C158.385 13.6089 158.362 13.3184 158.316 13.0056C158.293 12.6927 158.212 12.4022 158.074 12.1341C157.959 11.8436 157.763 11.6089 157.487 11.4302C157.211 11.229 156.831 11.1285 156.348 11.1285C155.819 11.1732 155.393 11.3073 155.071 11.5307C154.772 11.7542 154.542 12.0223 154.381 12.3352C154.243 12.648 154.15 12.9721 154.104 13.3073C154.081 13.6425 154.07 13.9441 154.07 14.2123V23.7318H147.96V13.8436C147.96 13.6201 147.937 13.352 147.891 13.0391C147.868 12.7263 147.788 12.4246 147.65 12.1341C147.512 11.8436 147.304 11.6089 147.028 11.4302C146.775 11.229 146.418 11.1285 145.958 11.1285C145.383 11.1285 144.923 11.2402 144.577 11.4637C144.255 11.6872 144.014 11.9777 143.853 12.3352C143.715 12.6704 143.622 13.0279 143.576 13.4078C143.553 13.7654 143.542 14.0894 143.542 14.3799V23.7318H137.432V6.06704H142.817L143.369 7.94413Z" fill="#333333"/>
<path d="M180.374 21.419C179.913 22.0894 179.407 22.6034 178.855 22.9609C178.325 23.2961 177.785 23.5419 177.232 23.6983C176.703 23.8547 176.208 23.9441 175.748 23.9665C175.288 23.9888 174.943 24 174.713 24C173.953 24 173.205 23.8883 172.469 23.6648C171.756 23.4413 171.123 23.095 170.57 22.6257C170.018 22.1564 169.569 21.5754 169.224 20.8827C168.879 20.1676 168.706 19.3073 168.706 18.3017C168.706 17.2737 168.971 16.3799 169.5 15.6201C170.053 14.8603 170.708 14.2905 171.468 13.9106C172.02 13.6425 172.607 13.4413 173.228 13.3073C173.873 13.1508 174.517 13.0503 175.161 13.0056C175.829 12.9609 176.519 12.9385 177.232 12.9385H180.201C180.178 12.3128 179.936 11.7877 179.476 11.3631C179.039 10.9162 178.418 10.6927 177.612 10.6927C177.014 10.6927 176.462 10.8156 175.955 11.0615C175.472 11.3073 175.196 11.6201 175.127 12H169.052C169.19 10.905 169.523 9.96648 170.053 9.18436C170.582 8.37989 171.238 7.73184 172.02 7.24022C172.803 6.72626 173.666 6.34637 174.609 6.10056C175.553 5.85475 176.531 5.73184 177.543 5.73184C178.763 5.73184 179.821 5.85475 180.719 6.10056C181.639 6.34637 182.433 6.71508 183.1 7.2067C185.033 8.56983 186 10.9162 186 14.2458V23.7318H180.374V21.419ZM176.853 16.5922C176.277 16.5922 175.783 16.7039 175.368 16.9274C174.954 17.1508 174.747 17.5196 174.747 18.0335C174.747 18.5028 174.931 18.8603 175.299 19.1061C175.691 19.352 176.162 19.4749 176.715 19.4749C177.198 19.4749 177.647 19.3967 178.061 19.2402C178.498 19.0838 178.866 18.8715 179.165 18.6034C179.488 18.3128 179.741 18 179.925 17.6648C180.132 17.3296 180.247 16.9721 180.27 16.5922H176.853Z" fill="#333333"/>
<path d="M19.8877 12.6762C19.8877 18.0092 15.4357 22.3324 9.94385 22.3324C4.45201 22.3324 0 18.0092 0 12.6762C0 7.34324 4.45201 3.02001 9.94385 3.02001C15.4357 3.02001 19.8877 7.34324 19.8877 12.6762Z" fill="#F0A93E"/>
<path d="M31.0749 21.6586C33.7472 19.5284 35.452 16.2956 35.452 12.6762C35.452 9.05679 33.7472 5.82402 31.0749 3.69378C32.2067 3.25895 33.4403 3.02001 34.7314 3.02001C40.2233 3.02001 44.6753 7.34324 44.6753 12.6762C44.6753 18.0092 40.2233 22.3324 34.7314 22.3324C33.4403 22.3324 32.2067 22.0935 31.0749 21.6586Z" fill="#FFC874"/>
<path d="M17.8176 20.6079C19.8168 18.5318 21.0406 15.7428 21.0406 12.6762C21.0406 9.60961 19.8168 6.82058 17.8176 4.7445C19.4265 3.65736 21.3819 3.02001 23.4905 3.02001C28.9824 3.02001 33.4344 7.34324 33.4344 12.6762C33.4344 18.0092 28.9824 22.3324 23.4905 22.3324C21.3819 22.3324 19.4265 21.695 17.8176 20.6079Z" fill="#FFC874"/>
</svg>
