<svg width="22" height="19" viewBox="0 0 22 19" fill="none" xmlns="http://www.w3.org/2000/svg">
<path d="M0.328258 8.38818C2.55169 7.16298 5.03365 6.14042 7.35267 5.11263C11.3423 3.42919 15.3478 1.77492 19.3937 0.234815C20.1808 -0.0276039 21.5952 -0.284235 21.7339 0.882774C21.658 2.53466 21.3456 4.17688 21.1313 5.8191C20.5874 9.43048 19.9588 13.0295 19.3458 16.629C19.1346 17.828 17.6332 18.4486 16.6725 17.6814C14.3638 16.1213 12.0373 14.5764 9.75808 12.9802C9.01146 12.2212 9.70379 11.1314 10.3706 10.5894C12.2721 8.71474 14.2887 7.12199 16.0909 5.15044C16.577 3.97606 15.1407 4.9658 14.6669 5.26905C12.0637 7.06364 9.52421 8.9678 6.77962 10.545C5.37768 11.317 3.74369 10.6573 2.34239 10.2265C1.08594 9.70606 -0.755221 9.18178 0.328131 8.38826L0.328258 8.38818Z" fill="white"/>
</svg>
