<svg width="47" height="47" viewBox="0 0 47 47" fill="none" xmlns="http://www.w3.org/2000/svg">
<path d="M45.6562 6.4253C44.9648 5.73269 43.843 5.7315 43.1515 6.42236L21.9012 27.6166L14.2342 19.2894C13.5717 18.5703 12.4515 18.5237 11.7312 19.1861C11.0114 19.8486 10.9654 20.9692 11.6279 21.689L20.5437 31.3718C20.8702 31.7267 21.3272 31.9328 21.809 31.9428C21.822 31.9434 21.8345 31.9434 21.8469 31.9434C22.3151 31.9434 22.7656 31.7574 23.0974 31.4267L45.6527 8.93053C46.3459 8.23976 46.3471 7.11791 45.6562 6.4253Z" fill="url(#paint0_linear_220_16909)"/>
<path d="M45.2286 21.7286C44.2502 21.7286 43.4573 22.5215 43.4573 23.5C43.4573 34.5049 34.5049 43.4573 23.5 43.4573C12.4958 43.4573 3.54272 34.5049 3.54272 23.5C3.54272 12.4958 12.4958 3.54272 23.5 3.54272C24.4784 3.54272 25.2714 2.74978 25.2714 1.7714C25.2714 0.792941 24.4784 0 23.5 0C10.542 0 0 10.542 0 23.5C0 36.4575 10.542 47 23.5 47C36.4575 47 47 36.4575 47 23.5C47 22.5216 46.2071 21.7286 45.2286 21.7286Z" fill="url(#paint1_linear_220_16909)"/>
<defs>
<linearGradient id="paint0_linear_220_16909" x1="8.10846" y1="14.6303" x2="47.0754" y2="16.9789" gradientUnits="userSpaceOnUse">
<stop stop-color="#D1ADF4"/>
<stop offset="1" stop-color="#7B8AE4"/>
<stop offset="1" stop-color="#98A5F2"/>
</linearGradient>
<linearGradient id="paint1_linear_220_16909" x1="-4.09571" y1="15.7493" x2="48.2955" y2="18.0976" gradientUnits="userSpaceOnUse">
<stop stop-color="#D1ADF4"/>
<stop offset="1" stop-color="#7B8AE4"/>
<stop offset="1" stop-color="#98A5F2"/>
</linearGradient>
</defs>
</svg>
