<svg width="37" height="38" viewBox="0 0 37 38" fill="none" xmlns="http://www.w3.org/2000/svg">
    <path d="M18.5 6.99866C11.9252 6.99866 6.57617 12.3497 6.57617 18.927C6.57617 25.5043 11.9252 30.8554 18.5 30.8554C25.0748 30.8554 30.4238 25.5043 30.4238 18.927C30.4238 12.3497 25.0748 6.99866 18.5 6.99866Z" fill="url(#paint0_linear_1_51)"/>
    <path d="M21.0293 16.216C21.0293 16.8148 21.5146 17.3004 22.1133 17.3004C22.7119 17.3004 23.1973 16.8148 23.1973 16.216C23.1973 15.1577 22.6535 14.1429 21.7053 13.4315C21.1041 12.9803 20.3738 12.6698 19.584 12.5211V12.4206C19.584 11.8217 19.0986 11.3362 18.5 11.3362C17.9014 11.3362 17.416 11.8217 17.416 12.4206V12.5211C16.6262 12.6699 15.8958 12.9804 15.2947 13.4315C14.3465 14.1429 13.8027 15.1577 13.8027 16.216C13.8027 17.2742 14.3465 18.2891 15.2947 19.0005C15.8959 19.4516 16.6262 19.7622 17.416 19.9109V23.0957C16.577 22.8244 15.9707 22.2585 15.9707 21.638C15.9707 21.0391 15.4854 20.5536 14.8867 20.5536C14.2881 20.5536 13.8027 21.0391 13.8027 21.638C13.8027 22.6962 14.3465 23.711 15.2947 24.4225C15.8959 24.8736 16.6262 25.1842 17.416 25.3329V25.4333C17.416 26.0322 17.9014 26.5177 18.5 26.5177C19.0986 26.5177 19.584 26.0322 19.584 25.4333V25.3328C20.3738 25.1841 21.1042 24.8735 21.7053 24.4224C22.6535 23.711 23.1973 22.6962 23.1973 21.638C23.1973 20.5797 22.6535 19.5649 21.7053 18.8534C21.1041 18.4023 20.3738 18.0918 19.584 17.9431V14.7583C20.423 15.0296 21.0293 15.5954 21.0293 16.216ZM17.416 17.6737C16.577 17.4024 15.9707 16.8365 15.9707 16.216C15.9707 15.5954 16.577 15.0296 17.416 14.7583V17.6737ZM21.0293 21.638C21.0293 22.2585 20.423 22.8244 19.584 23.0957V20.1802C20.423 20.4516 21.0293 21.0174 21.0293 21.638ZM36.1413 13.4221C35.9603 12.8512 35.351 12.5352 34.7804 12.7162C34.2098 12.8971 33.8937 13.5067 34.0747 14.0776C34.5773 15.6631 34.832 17.3189 34.832 18.9993C34.832 27.9683 27.5379 35.2652 18.5723 35.2652C15.1899 35.2652 11.9653 34.2316 9.2706 32.3465C9.76244 32.3943 10.2397 32.0996 10.4027 31.6107C10.592 31.0426 10.2851 30.4284 9.71712 30.239L5.11814 28.7055C4.72863 28.5754 4.29915 28.677 4.00886 28.9675C3.7185 29.2579 3.61711 29.6875 3.74697 30.0772L5.27994 34.6779C5.43141 35.1323 5.85424 35.4197 6.30821 35.4197C6.42181 35.4197 6.53744 35.4017 6.65111 35.3638C7.21905 35.1744 7.52596 34.5603 7.3367 33.9921L7.16774 33.485C10.3838 36.0276 14.3707 37.434 18.5723 37.434C23.4945 37.434 28.1221 35.5164 31.6027 32.0346C35.0833 28.5527 37 23.9234 37 18.9993C37 17.0963 36.7111 15.2199 36.1413 13.4221ZM2.16797 18.8547C2.16797 9.88562 9.4621 2.58872 18.4277 2.58872C21.8101 2.58872 25.0347 3.62229 27.7294 5.50741C27.2376 5.45962 26.7603 5.75436 26.5973 6.24321C26.408 6.81136 26.7149 7.42549 27.2829 7.6149L31.8819 9.14845C31.9942 9.18597 32.1098 9.20419 32.2245 9.20419C32.5075 9.20419 32.7845 9.09322 32.9911 8.88653C33.2814 8.59613 33.3828 8.16649 33.253 7.77683L31.72 3.1761C31.5306 2.60787 30.9167 2.30084 30.3488 2.49025C29.7809 2.67966 29.474 3.29379 29.6632 3.86194L29.8322 4.36908C26.6162 1.82631 22.6293 0.419922 18.4277 0.419922C13.5055 0.419922 8.8779 2.3375 5.39738 5.81935C1.91685 9.30121 0 13.9306 0 18.8547C0 20.7576 0.288918 22.634 0.85866 24.4318C1.00507 24.8937 1.4318 25.1887 1.8917 25.1887C2.00024 25.1887 2.11059 25.1722 2.21957 25.1377C2.79025 24.9567 3.10627 24.3471 2.92531 23.7762C2.4227 22.1908 2.16797 20.535 2.16797 18.8547Z" fill="url(#paint1_linear_1_51)"/>
    <defs>
        <linearGradient id="paint0_linear_1_51" x1="4.49802" y1="14.9929" x2="31.0812" y2="16.1839" gradientUnits="userSpaceOnUse">
            <stop stop-color="#D1ADF4"/>
            <stop offset="1" stop-color="#7B8AE4"/>
            <stop offset="1" stop-color="#98A5F2"/>
        </linearGradient>
        <linearGradient id="paint1_linear_1_51" x1="18.5" y1="37.4341" x2="18.5" y2="0.419922" gradientUnits="userSpaceOnUse">
            <stop stop-color="#EAE2FF"/>
            <stop offset="1" stop-color="#F1F2FF"/>
        </linearGradient>
    </defs>
</svg>
