<svg width="28" height="37" viewBox="0 0 28 37" fill="none" xmlns="http://www.w3.org/2000/svg">
    <path d="M18.7124 22.6874C17.5942 21.781 16.538 20.9249 15.7858 20.1365C14.9425 19.2528 14.7655 18.7442 14.7655 18.4732C14.7655 18.2022 14.9425 17.6936 15.7858 16.8098C16.538 16.0214 17.5942 15.1653 18.7124 14.2589C21.6693 11.8622 25.0206 9.14578 25.1971 5.76661C25.287 4.04527 24.5264 2.36599 22.9364 0.775269H4.52763C2.93596 2.36761 2.17392 4.04851 2.26265 5.77133C2.4366 9.14881 5.77666 11.8644 8.72353 14.2604C9.8377 15.1662 10.8901 16.0218 11.6395 16.8097C12.4798 17.6932 12.6562 18.202 12.6562 18.4732C12.6562 18.7444 12.4798 19.2532 11.6395 20.1366C10.8901 20.9246 9.83777 21.7802 8.7236 22.686C5.77673 25.082 2.4366 27.7976 2.26272 31.1751C2.17399 32.8979 2.93603 34.5788 4.52763 36.171H22.9364C24.5265 34.5803 25.2871 32.901 25.1971 31.1797C25.0206 27.8006 21.6693 25.0841 18.7124 22.6874Z" fill="url(#paint0_linear_1_61)"/>
    <path d="M26.3672 34.37H21.7382C22.6994 33.316 23.1438 32.3052 23.0906 31.2898C23.0265 30.0583 22.2362 28.895 21.4235 27.9691H6.02437C5.21487 28.8977 4.43355 30.0547 4.36922 31.2835C4.3167 32.3016 4.76241 33.3145 5.72569 34.37H1.05469C0.472219 34.37 0 34.8424 0 35.4251C0 36.0078 0.472219 36.4802 1.05469 36.4802H26.3672C26.9497 36.4802 27.4219 36.0078 27.4219 35.4251C27.4219 34.8424 26.9497 34.37 26.3672 34.37Z" fill="url(#paint1_linear_1_61)"/>
    <path d="M26.3672 2.57581H1.05469C0.472219 2.57581 0 2.10359 0 1.52112C0 0.938649 0.472219 0.466431 1.05469 0.466431H26.3672C26.9497 0.466431 27.4219 0.938649 27.4219 1.52112C27.4219 2.10359 26.9497 2.57581 26.3672 2.57581Z" fill="url(#paint2_linear_1_61)"/>
    <defs>
        <linearGradient id="paint0_linear_1_61" x1="13.73" y1="36.1711" x2="13.73" y2="0.775269" gradientUnits="userSpaceOnUse">
            <stop stop-color="#EAE2FF"/>
            <stop offset="1" stop-color="#F1F2FF"/>
        </linearGradient>
        <linearGradient id="paint1_linear_1_61" x1="-2.38962" y1="30.8211" x2="27.6134" y2="35.154" gradientUnits="userSpaceOnUse">
            <stop stop-color="#D1ADF4"/>
            <stop offset="1" stop-color="#7B8AE4"/>
            <stop offset="1" stop-color="#98A5F2"/>
        </linearGradient>
        <linearGradient id="paint2_linear_1_61" x1="-2.38962" y1="1.17327" x2="20.4756" y2="14.4967" gradientUnits="userSpaceOnUse">
            <stop stop-color="#D1ADF4"/>
            <stop offset="1" stop-color="#7B8AE4"/>
            <stop offset="1" stop-color="#98A5F2"/>
        </linearGradient>
    </defs>
</svg>
