<svg width="31" height="37" viewBox="0 0 31 37" fill="none" xmlns="http://www.w3.org/2000/svg">
    <path d="M30.26 9.78271C30.217 8.83527 30.217 7.93089 30.217 7.02651C30.217 6.29439 29.6573 5.73454 28.9255 5.73454C23.5443 5.73454 19.4546 4.18417 16.0537 0.86811C15.5371 0.394387 14.7623 0.394387 14.2457 0.86811C10.8448 4.18417 6.75508 5.73454 1.37392 5.73454C0.642079 5.73454 0.0824376 6.29439 0.0824376 7.02651C0.0824376 7.93089 0.0824375 8.83527 0.0393882 9.78271C-0.132809 18.8265 -0.391106 31.2294 14.7192 36.4404L15.1497 36.5265L15.5802 36.4404C30.6475 31.2294 30.4322 18.8696 30.26 9.78271ZM14.1165 22.3148C13.8582 22.5302 13.5569 22.6594 13.2125 22.6594H13.1694C12.825 22.6594 12.4806 22.4871 12.2654 22.2287L8.26181 17.7929L10.199 16.0703L13.3416 19.5586L20.3156 12.9265L22.0806 14.8214L14.1165 22.3148Z" fill="url(#paint0_linear_1_81)"/>
    <defs>
        <linearGradient id="paint0_linear_1_81" x1="-2.64025" y1="12.5807" x2="31.1529" y2="13.855" gradientUnits="userSpaceOnUse">
            <stop stop-color="#D1ADF4"/>
            <stop offset="1" stop-color="#7B8AE4"/>
            <stop offset="1" stop-color="#98A5F2"/>
        </linearGradient>
    </defs>
</svg>
