<svg width="36" height="24" viewBox="0 0 36 24" fill="none" xmlns="http://www.w3.org/2000/svg">
    <path d="M34.9453 23.5877H1.05469C0.471727 23.5877 0 23.1158 0 22.5326V1.43082C0 0.847639 0.471727 0.375732 1.05469 0.375732H34.9453C35.5283 0.375732 36 0.847639 36 1.43082V22.5326C36 23.1158 35.5283 23.5877 34.9453 23.5877Z" fill="url(#paint0_linear_102_44)"/>
    <path d="M26.4373 19.3674H9.56226C8.97929 19.3674 8.50757 18.8955 8.50757 18.3123C8.50757 16.5669 7.08824 15.1471 5.34351 15.1471C4.76054 15.1471 4.28882 14.6752 4.28882 14.092V9.87164C4.28882 9.28845 4.76054 8.81655 5.34351 8.81655C7.08824 8.81655 8.50757 7.39668 8.50757 5.65128C8.50757 5.0681 8.97929 4.59619 9.56226 4.59619H26.4373C27.0202 4.59619 27.4919 5.0681 27.4919 5.65128C27.4919 7.39668 28.9113 8.81655 30.656 8.81655C31.239 8.81655 31.7107 9.28845 31.7107 9.87164V14.092C31.7107 14.6752 31.239 15.1471 30.656 15.1471C28.9113 15.1471 27.4919 16.5669 27.4919 18.3123C27.4919 18.8955 27.0202 19.3674 26.4373 19.3674Z" fill="url(#paint1_linear_102_44)"/>
    <path d="M18 15.1469C19.7475 15.1469 21.1641 13.7298 21.1641 11.9817C21.1641 10.2335 19.7475 8.81641 18 8.81641C16.2525 8.81641 14.8359 10.2335 14.8359 11.9817C14.8359 13.7298 16.2525 15.1469 18 15.1469Z" fill="url(#paint2_linear_102_44)"/>
    <defs>
        <linearGradient id="paint0_linear_102_44" x1="-3.13714" y1="8.15388" x2="36.8795" y2="10.9357" gradientUnits="userSpaceOnUse">
            <stop stop-color="#D1ADF4"/>
            <stop offset="1" stop-color="#7B8AE4"/>
            <stop offset="1" stop-color="#98A5F2"/>
        </linearGradient>
        <linearGradient id="paint1_linear_102_44" x1="17.9998" y1="19.3675" x2="17.9998" y2="4.59619" gradientUnits="userSpaceOnUse">
            <stop stop-color="#EAE2FF"/>
            <stop offset="1" stop-color="#F1F2FF"/>
        </linearGradient>
        <linearGradient id="paint2_linear_102_44" x1="14.2845" y1="10.9377" x2="21.3385" y2="11.2538" gradientUnits="userSpaceOnUse">
            <stop stop-color="#D1ADF4"/>
            <stop offset="1" stop-color="#7B8AE4"/>
            <stop offset="1" stop-color="#98A5F2"/>
        </linearGradient>
    </defs>
</svg>
