<svg width="226" height="228" viewBox="0 0 226 228" fill="none" xmlns="http://www.w3.org/2000/svg">
    <g opacity="0.1">
        <path d="M218.949 32.2407L218.949 32.2406C215.459 28.7431 209.795 28.7366 206.304 32.2261L105.395 132.907L69.2066 93.5884L69.2065 93.5883C65.8621 89.9566 60.2075 89.7212 56.5713 93.0662L56.5712 93.0664C52.9375 96.4122 52.7051 102.071 56.0493 105.706L56.0494 105.706L98.5418 151.872C98.5419 151.872 98.5419 151.872 98.542 151.872C100.189 153.663 102.494 154.703 104.925 154.755C104.995 154.758 105.062 154.758 105.117 154.758H105.121C107.485 154.758 109.758 153.819 111.434 152.149L111.434 152.149L218.931 44.8922C222.431 41.4036 222.437 35.7383 218.949 32.2407Z" fill="white" stroke="white"/>
        <path d="M216.558 105.056C211.618 105.056 207.616 109.061 207.616 114.002C207.616 166.194 165.172 208.653 113 208.653C60.8306 208.653 18.3844 166.194 18.3844 114.002C18.3844 61.8119 60.8306 19.3498 113 19.3498C117.939 19.3498 121.942 15.3453 121.942 10.4046C121.942 5.46357 117.939 1.45898 113 1.45898C50.9662 1.45898 0.5 51.9446 0.5 114.002C0.5 176.056 50.9662 226.544 113 226.544C175.031 226.544 225.5 176.056 225.5 114.002C225.5 109.061 221.497 105.056 216.558 105.056Z" fill="white" stroke="white"/>
    </g>
</svg>
